<svg xmlns="http://www.w3.org/2000/svg" width="1200" height="675" viewBox="0 0 1200 675">
  <defs>
    <linearGradient id="bg" x1="0" y1="0" x2="1" y2="1">
      <stop offset="0%" stop-color="#0b0b0b"/>
      <stop offset="100%" stop-color="#1a1a1a"/>
    </linearGradient>
    <linearGradient id="accent" x1="0" y1="0" x2="1" y2="1">
      <stop offset="0%" stop-color="#f59e0b"/>
      <stop offset="100%" stop-color="#fb923c"/>
    </linearGradient>
  </defs>
  <rect width="1200" height="675" rx="36" fill="url(#bg)"/>
  <rect x="80" y="80" width="1040" height="515" rx="24" fill="#121212" stroke="#2a2a2a" stroke-width="2"/>
  <g transform="translate(140,140)">
    <text x="0" y="0" font-family="Arial, Helvetica, sans-serif" font-size="36" fill="#f5f5f5">AttriSense</text>
    <text x="0" y="38" font-family="Arial, Helvetica, sans-serif" font-size="18" fill="#a3a3a3">AI-driven attrition analytics</text>
  </g>
  <g transform="translate(160,260)">
    <rect x="0" y="140" width="90" height="180" rx="10" fill="url(#accent)"/>
    <rect x="140" y="80" width="90" height="240" rx="10" fill="#fbbf24"/>
    <rect x="280" y="30" width="90" height="290" rx="10" fill="#fdba74"/>
    <rect x="420" y="120" width="90" height="200" rx="10" fill="#f59e0b"/>
  </g>
  <g transform="translate(700,250)">
    <rect x="0" y="0" width="360" height="220" rx="18" fill="#171717" stroke="#2a2a2a" stroke-width="2"/>
    <text x="24" y="48" font-family="Arial, Helvetica, sans-serif" font-size="20" fill="#f5f5f5">Top Drivers</text>
    <g transform="translate(24,80)" fill="#a3a3a3" font-family="Arial, Helvetica, sans-serif" font-size="16">
      <text x="0" y="0">Workload</text>
      <text x="0" y="40">Growth</text>
      <text x="0" y="80">Compensation</text>
      <text x="0" y="120">Manager</text>
    </g>
    <g transform="translate(220,70)" fill="#f59e0b">
      <rect x="0" y="0" width="110" height="12" rx="6"/>
      <rect x="0" y="40" width="92" height="12" rx="6"/>
      <rect x="0" y="80" width="76" height="12" rx="6"/>
      <rect x="0" y="120" width="64" height="12" rx="6"/>
    </g>
  </g>
</svg>
